<svg width="658.0625px" height="123.3590087890625px" xmlns="http://www.w3.org/2000/svg" viewBox="-79.03125 13.32049560546875 658.0625 123.3590087890625" style="background: rgba(0, 0, 0, 0);" preserveAspectRatio="xMidYMid"><defs><filter id="editing-golden" x="-100%" y="-100%" width="300%" height="300%"><feFlood flood-color="#806527" result="flood"></feFlood><feFlood flood-color="#fff694" result="flood-light"></feFlood><feComposite operator="in" in="flood" in2="SourceAlpha" result="flood-comp"></feComposite><feGaussianBlur in="flood-comp" stdDeviation="3" result="blur"></feGaussianBlur><feOffset in="blur" dy="3" result="offset-blur"></feOffset><feComponentTransfer in="offset-blur" result="comp-blur"><feFuncA type="linear" slope="0.7" intercept="-0.1"></feFuncA></feComponentTransfer><feSpecularLighting surfaceScale="200" specularConstant="20" specularExponent="1" lighting-color="#fff" in="blur" result="specular"><fePointLight x="-250" y="-250" z="3500"></fePointLight></feSpecularLighting><feComponentTransfer in="specular" result="inspecular"><feFuncA type="linear" slope="-1" intercept="1"></feFuncA></feComponentTransfer><feComposite operator="in" in="flood-light" in2="inspecular" result="inspecular2"></feComposite><feComposite operator="in" in="inspecular2" in2="SourceAlpha" result="light"></feComposite><feMerge><feMergeNode in="comp-blur"></feMergeNode><feMergeNode in="SourceGraphic"></feMergeNode><feMergeNode in="light"></feMergeNode></feMerge></filter></defs><g filter="url(#editing-golden)"><g transform="translate(15.184992551803589, 107.0584602355957)"><path d="M25.34-20.99L25.02-27.71L25.02-27.71Q22.40-28.54 19.65-28.54L19.65-28.54L19.65-28.54Q14.08-28.54 10.72-24.96L10.72-24.96L10.72-24.96Q7.36-21.38 7.36-14.85L7.36-14.85L7.36-14.85Q7.36-3.46 17.92-3.46L17.92-3.46L17.92-3.46Q22.14-3.46 26.62-4.86L26.62-4.86L26.62-4.86Q27.52-5.12 27.71-5.25L27.71-5.25L28.74-1.79L28.74-1.79Q26.50-0.45 20.61 0.13L20.61 0.13L20.61 0.13Q18.94 0.26 17.09 0.26L17.09 0.26L17.09 0.26Q11.65 0.26 8.13-2.43L8.13-2.43L8.13-2.43Q3.20-6.14 3.20-14.66L3.20-14.66L3.20-14.66Q3.20-23.17 7.78-27.74L7.78-27.74L7.78-27.74Q12.35-32.32 19.58-32.32L19.58-32.32L19.58-32.32Q21.89-32.32 24.48-31.71L24.48-31.71L24.48-31.71Q27.07-31.10 28.48-29.82L28.48-29.82L28.48-21.44L25.34-20.99ZM39.30 0L35.14 0L35.14-47.68L39.30-48L39.30 0ZM47.04-25.47L45.89-28.54L45.89-28.54Q52.86-32 58.11-32.19L58.11-32.19L58.11-32.19Q62.27-32.19 64.54-31.14L64.54-31.14L64.54-31.14Q66.82-30.08 68.22-28.19L68.22-28.19L68.22-28.19Q69.63-26.30 69.63-22.91L69.63-22.91L69.63 0L65.47 0L65.47-2.43L65.47-2.43Q56.70 0.26 54.21 0.26L54.21 0.26L54.21 0.26Q54.08 0.26 54.02 0.26L54.02 0.26L54.02 0.26Q48.26 0.26 46.14-3.26L46.14-3.26L46.14-3.26Q45.38-4.54 45.28-5.76L45.28-5.76L45.28-5.76Q45.18-6.98 45.18-7.81L45.18-7.81L45.18-7.81Q45.18-10.11 46.98-11.94L46.98-11.94L46.98-11.94Q48.77-13.76 51.26-14.40L51.26-14.40L51.26-14.40Q55.49-15.49 65.47-16.32L65.47-16.32L65.47-21.50L65.47-21.50Q65.47-28.48 58.18-28.48L58.18-28.48L58.18-28.48Q53.06-28.48 47.04-25.47L47.04-25.47ZM49.09-7.30L49.09-7.30L49.09-7.30Q49.09-2.69 55.42-2.69L55.42-2.69L55.42-2.69Q60.48-2.69 65.47-4.86L65.47-4.86L65.47-14.02L65.47-14.02Q55.49-12.61 53.12-11.84L53.12-11.84L53.12-11.84Q49.09-10.56 49.09-7.30ZM94.72-31.36L93.70-27.78L93.70-27.78Q91.39-28.54 87.42-28.54L87.42-28.54L87.42-28.54Q83.46-28.54 81.28-27.14L81.28-27.14L81.28-27.14Q79.10-25.73 79.10-23.65L79.10-23.65L79.10-23.65Q79.10-21.57 80.38-20.61L80.38-20.61L80.38-20.61Q81.66-19.65 83.58-18.98L83.58-18.98L83.58-18.98Q85.50-18.30 87.78-17.66L87.78-17.66L87.78-17.66Q90.05-17.02 91.97-16L91.97-16L91.97-16Q96.45-13.70 96.45-9.15L96.45-9.15L96.45-9.15Q96.45-4.61 93.34-2.18L93.34-2.18L93.34-2.18Q90.24 0.26 84.29 0.26L84.29 0.26L84.29 0.26Q81.28 0.26 78.50-0.35L78.50-0.35L78.50-0.35Q75.71-0.96 74.24-2.05L74.24-2.05L75.65-5.44L75.65-5.44Q77.12-4.16 81.60-3.58L81.60-3.58L81.60-3.58Q83.01-3.39 84.48-3.39L84.48-3.39L84.48-3.39Q87.81-3.39 90.05-4.77L90.05-4.77L90.05-4.77Q92.29-6.14 92.29-8.96L92.29-8.96L92.29-8.96Q92.29-10.88 91.01-11.97L91.01-11.97L91.01-11.97Q89.73-13.06 87.81-13.79L87.81-13.79L87.81-13.79Q85.89-14.53 83.62-15.10L83.62-15.10L83.62-15.10Q81.34-15.68 79.42-16.61L79.42-16.61L79.42-16.61Q77.50-17.54 76.22-19.04L76.22-19.04L76.22-19.04Q74.94-20.54 74.94-23.10L74.94-23.10L74.94-23.10Q74.94-27.26 78.14-29.76L78.14-29.76L78.14-29.76Q81.34-32.26 86.72-32.26L86.72-32.26L86.72-32.26Q88.06-32.26 89.47-32.10L89.47-32.10L89.47-32.10Q90.88-31.94 92.03-31.81L92.03-31.81L94.72-31.36ZM120.96-31.36L119.94-27.78L119.94-27.78Q117.63-28.54 113.66-28.54L113.66-28.54L113.66-28.54Q109.70-28.54 107.52-27.14L107.52-27.14L107.52-27.14Q105.34-25.73 105.34-23.65L105.34-23.65L105.34-23.65Q105.34-21.57 106.62-20.61L106.62-20.61L106.62-20.61Q107.90-19.65 109.82-18.98L109.82-18.98L109.82-18.98Q111.74-18.30 114.02-17.66L114.02-17.66L114.02-17.66Q116.29-17.02 118.21-16L118.21-16L118.21-16Q122.69-13.70 122.69-9.15L122.69-9.15L122.69-9.15Q122.69-4.61 119.58-2.18L119.58-2.18L119.58-2.18Q116.48 0.26 110.53 0.26L110.53 0.26L110.53 0.26Q107.52 0.26 104.74-0.35L104.74-0.35L104.74-0.35Q101.95-0.96 100.48-2.05L100.48-2.05L101.89-5.44L101.89-5.44Q103.36-4.16 107.84-3.58L107.84-3.58L107.84-3.58Q109.25-3.39 110.72-3.39L110.72-3.39L110.72-3.39Q114.05-3.39 116.29-4.77L116.29-4.77L116.29-4.77Q118.53-6.14 118.53-8.96L118.53-8.96L118.53-8.96Q118.53-10.88 117.25-11.97L117.25-11.97L117.25-11.97Q115.97-13.06 114.05-13.79L114.05-13.79L114.05-13.79Q112.13-14.53 109.86-15.10L109.86-15.10L109.86-15.10Q107.58-15.68 105.66-16.61L105.66-16.61L105.66-16.61Q103.74-17.54 102.46-19.04L102.46-19.04L102.46-19.04Q101.18-20.54 101.18-23.10L101.18-23.10L101.18-23.10Q101.18-27.26 104.38-29.76L104.38-29.76L104.38-29.76Q107.58-32.26 112.96-32.26L112.96-32.26L112.96-32.26Q114.30-32.26 115.71-32.10L115.71-32.10L115.71-32.10Q117.12-31.94 118.27-31.81L118.27-31.81L120.96-31.36ZM129.02-32L133.18-32.32L133.18 0L129.02 0L129.02-32ZM130.94-40.58L130.94-40.58L130.94-40.58Q129.66-40.58 128.99-41.41L128.99-41.41L128.99-41.41Q128.32-42.24 128.32-43.52L128.32-43.52L128.32-43.52Q128.32-44.80 129.06-45.60L129.06-45.60L129.06-45.60Q129.79-46.40 131.07-46.40L131.07-46.40L131.07-46.40Q132.35-46.40 133.15-45.60L133.15-45.60L133.15-45.60Q133.95-44.80 133.95-43.39L133.95-43.39L133.95-43.39Q133.95-41.98 133.09-41.28L133.09-41.28L133.09-41.28Q132.22-40.58 130.94-40.58ZM161.98-20.99L161.66-27.71L161.66-27.71Q159.04-28.54 156.29-28.54L156.29-28.54L156.29-28.54Q150.72-28.54 147.36-24.96L147.36-24.96L147.36-24.96Q144.00-21.38 144.00-14.85L144.00-14.85L144.00-14.85Q144.00-3.46 154.56-3.46L154.56-3.46L154.56-3.46Q158.78-3.46 163.26-4.86L163.26-4.86L163.26-4.86Q164.16-5.12 164.35-5.25L164.35-5.25L165.38-1.79L165.38-1.79Q163.14-0.45 157.25 0.13L157.25 0.13L157.25 0.13Q155.58 0.26 153.73 0.26L153.73 0.26L153.73 0.26Q148.29 0.26 144.77-2.43L144.77-2.43L144.77-2.43Q139.84-6.14 139.84-14.66L139.84-14.66L139.84-14.66Q139.84-23.17 144.42-27.74L144.42-27.74L144.42-27.74Q148.99-32.32 156.22-32.32L156.22-32.32L156.22-32.32Q158.53-32.32 161.12-31.71L161.12-31.71L161.12-31.71Q163.71-31.10 165.12-29.82L165.12-29.82L165.12-21.44L161.98-20.99ZM196.16-12.35L196.16-12.35L196.16-12.35Q191.42-14.72 191.42-21.25L191.42-21.25L191.42-21.25Q191.42-26.62 195.14-29.44L195.14-29.44L195.14-29.44Q198.85-32.26 204.61-32.26L204.61-32.26L204.61-32.26Q206.14-32.26 208.38-31.94L208.38-31.94L220.42-32.26L220.29-29.82L213.31-29.82L213.31-29.82Q216.83-27.20 216.83-21.92L216.83-21.92L216.83-21.92Q216.83-16.64 213.31-13.79L213.31-13.79L213.31-13.79Q209.79-10.94 204.22-10.94L204.22-10.94L204.22-10.94Q200.64-10.94 198.27-11.58L198.27-11.58L198.27-11.58Q197.06-10.43 197.06-8.90L197.06-8.90L197.06-8.90Q197.06-6.72 199.46-5.76L199.46-5.76L199.46-5.76Q201.86-4.80 205.12-4.35L205.12-4.35L205.12-4.35Q212.35-3.39 215.55-1.66L215.55-1.66L215.55-1.66Q220.16 0.90 220.16 6.21L220.16 6.21L220.16 6.21Q220.16 11.52 215.10 14.08L215.10 14.08L215.10 14.08Q211.26 16 205.82 16L205.82 16L205.82 16Q200.38 16 197.44 15.17L197.44 15.17L197.44 15.17Q189.70 12.93 189.70 6.85L189.70 6.85L189.70 6.85Q189.70 0.77 196.54-3.46L196.54-3.46L196.54-3.46Q193.86-5.44 193.86-8.06L193.86-8.06L193.86-8.06Q193.86-10.69 196.16-12.35ZM216.00 6.14L216.00 6.14L216.00 6.14Q216.00 1.98 210.50 0.38L210.50 0.38L210.50 0.38Q208.96-0.06 204.99-0.70L204.99-0.70L204.99-0.70Q201.02-1.34 198.78-2.24L198.78-2.24L198.78-2.24Q193.86 1.86 193.86 5.70L193.86 5.70L193.86 5.70Q193.86 7.36 194.37 8.45L194.37 8.45L194.37 8.45Q194.88 9.54 196.16 10.37L196.16 10.37L196.16 10.37Q198.98 12.29 204.74 12.29L204.74 12.29L204.74 12.29Q212.29 12.29 214.98 9.09L214.98 9.09L214.98 9.09Q216.00 7.87 216.00 6.14ZM212.48-22.08L212.48-22.08L212.48-22.08Q212.48-28.86 204.42-28.86L204.42-28.86L204.42-28.86Q200.58-28.86 198.08-27.10L198.08-27.10L198.08-27.10Q195.58-25.34 195.58-21.73L195.58-21.73L195.58-21.73Q195.58-18.11 197.38-16.22L197.38-16.22L197.38-16.22Q199.17-14.34 203.42-14.34L203.42-14.34L203.42-14.34Q207.68-14.34 210.08-16.38L210.08-16.38L210.08-16.38Q212.48-18.43 212.48-22.08ZM243.46-31.36L241.79-27.52L241.79-27.52Q240.77-28.10 239.62-28.10L239.62-28.10L239.62-28.10Q238.46-28.10 238.34-28.03L238.34-28.03L238.34-28.03Q235.90-28.03 233.44-26.27L233.44-26.27L233.44-26.27Q230.98-24.51 229.25-22.34L229.25-22.34L229.25 0L225.09 0L225.09-32L229.25-32.32L229.25-25.15L229.25-25.15Q231.62-28.16 233.28-29.38L233.28-29.38L233.28-29.38Q236.35-31.68 239.17-31.81L239.17-31.81L239.17-31.81Q239.55-31.87 240.58-31.87L240.58-31.87L240.58-31.87Q241.60-31.87 243.46-31.36L243.46-31.36ZM248.00-32L252.16-32.32L252.16 0L248.00 0L248.00-32ZM249.92-40.58L249.92-40.58L249.92-40.58Q248.64-40.58 247.97-41.41L247.97-41.41L247.97-41.41Q247.30-42.24 247.30-43.52L247.30-43.52L247.30-43.52Q247.30-44.80 248.03-45.60L248.03-45.60L248.03-45.60Q248.77-46.40 250.05-46.40L250.05-46.40L250.05-46.40Q251.33-46.40 252.13-45.60L252.13-45.60L252.13-45.60Q252.93-44.80 252.93-43.39L252.93-43.39L252.93-43.39Q252.93-41.98 252.06-41.28L252.06-41.28L252.06-41.28Q251.20-40.58 249.92-40.58ZM275.97-32.32L275.97-32.32L275.97-32.32Q279.74-32.32 283.14-30.08L283.14-30.08L283.14-47.68L287.30-48L287.30-1.47L286.98-1.47L286.98-1.47Q284.99-0.64 280.35-0.19L280.35-0.19L280.35-0.19Q275.71 0.26 273.92 0.26L273.92 0.26L273.92 0.26Q268.54 0.26 265.02-2.43L265.02-2.43L265.02-2.43Q260.10-6.14 260.10-14.66L260.10-14.66L260.10-14.66Q260.10-23.17 264.67-27.74L264.67-27.74L264.67-27.74Q269.25-32.32 275.97-32.32ZM283.14-4.10L283.14-27.33L283.14-27.33Q279.94-28.54 276.86-28.54L276.86-28.54L276.86-28.54Q270.98-28.54 267.62-24.96L267.62-24.96L267.62-24.96Q264.26-21.38 264.26-14.78L264.26-14.78L264.26-14.78Q264.26-8.19 267.90-5.50L267.90-5.50L267.90-5.50Q270.53-3.46 274.53-3.46L274.53-3.46L274.53-3.46Q278.53-3.46 283.14-4.10L283.14-4.10ZM317.63 0L313.47 0L313.47-47.68L317.63-48L317.63 0ZM325.38-25.47L324.22-28.54L324.22-28.54Q331.20-32 336.45-32.19L336.45-32.19L336.45-32.19Q340.61-32.19 342.88-31.14L342.88-31.14L342.88-31.14Q345.15-30.08 346.56-28.19L346.56-28.19L346.56-28.19Q347.97-26.30 347.97-22.91L347.97-22.91L347.97 0L343.81 0L343.81-2.43L343.81-2.43Q335.04 0.26 332.54 0.26L332.54 0.26L332.54 0.26Q332.42 0.26 332.35 0.26L332.35 0.26L332.35 0.26Q326.59 0.26 324.48-3.26L324.48-3.26L324.48-3.26Q323.71-4.54 323.62-5.76L323.62-5.76L323.62-5.76Q323.52-6.98 323.52-7.81L323.52-7.81L323.52-7.81Q323.52-10.11 325.31-11.94L325.31-11.94L325.31-11.94Q327.10-13.76 329.60-14.40L329.60-14.40L329.60-14.40Q333.82-15.49 343.81-16.32L343.81-16.32L343.81-21.50L343.81-21.50Q343.81-28.48 336.51-28.48L336.51-28.48L336.51-28.48Q331.39-28.48 325.38-25.47L325.38-25.47ZM327.42-7.30L327.42-7.30L327.42-7.30Q327.42-2.69 333.76-2.69L333.76-2.69L333.76-2.69Q338.82-2.69 343.81-4.86L343.81-4.86L343.81-14.02L343.81-14.02Q333.82-12.61 331.46-11.84L331.46-11.84L331.46-11.84Q327.42-10.56 327.42-7.30ZM363.33 0L351.94-32L356.61-32.32L366.14-3.01L378.43-32L382.91-32L361.66 16L357.76 16L364.80 0L363.33 0ZM385.22-8.19L385.22-8.19L385.22-8.19Q384.06-11.26 384.06-15.36L384.06-15.36L384.06-15.36Q384.06-23.23 388.48-27.74L388.48-27.74L388.48-27.74Q392.90-32.26 399.55-32.26L399.55-32.26L399.55-32.26Q409.98-32.26 413.25-23.81L413.25-23.81L413.25-23.81Q414.46-20.74 414.46-16.64L414.46-16.64L414.46-16.64Q414.46-8.77 410.05-4.26L410.05-4.26L410.05-4.26Q405.63 0.26 398.98 0.26L398.98 0.26L398.98 0.26Q388.54 0.26 385.22-8.19ZM388.22-15.81L388.22-15.81L388.22-15.81Q388.22-9.92 391.26-6.69L391.26-6.69L391.26-6.69Q394.30-3.46 399.10-3.46L399.10-3.46L399.10-3.46Q403.90-3.46 407.10-6.88L407.10-6.88L407.10-6.88Q410.30-10.30 410.30-16.19L410.30-16.19L410.30-16.19Q410.30-22.08 407.30-25.31L407.30-25.31L407.30-25.31Q404.29-28.54 399.46-28.54L399.46-28.54L399.46-28.54Q394.62-28.54 391.42-25.12L391.42-25.12L391.42-25.12Q388.22-21.70 388.22-15.81ZM427.52-4.10L427.52-4.10L427.52-4.10Q428.93-3.58 432.00-3.58L432.00-3.58L432.00-3.58Q435.07-3.58 439.94-6.08L439.94-6.08L439.94-32L444.10-32.32L444.10 0L439.94 0L439.94-3.46L439.94-3.46Q435.20 0.19 430.27 0.19L430.27 0.19L430.27 0.19Q424.13 0.19 421.38-3.46L421.38-3.46L421.38-3.46Q419.97-5.25 419.97-8.45L419.97-8.45L419.97-32L424.13-32.32L424.13-9.54L424.13-9.54Q424.13-5.57 427.52-4.10ZM465.66-4.61L466.43-1.15L466.43-1.15Q465.28 0 462.27 0L462.27 0L462.27 0Q458.05 0 456.58-2.18L456.58-2.18L456.58-2.18Q454.08-4.54 454.08-8.58L454.08-8.58L454.08-28.29L450.50-28.29L451.07-32L454.08-32L454.08-38.34L458.24-38.72L458.24-32L465.66-32L465.66-28.29L458.24-28.29L458.24-7.55L458.24-7.55Q458.24-3.84 462.08-3.84L462.08-3.84L462.08-3.84Q463.74-3.84 465.66-4.61L465.66-4.61Z" fill="#f7c61d"></path></g></g><style>text {
  font-size: 64px;
  font-family: Arial Black;
  dominant-baseline: central;
  text-anchor: middle;
}</style></svg>