<svg width="208.3719482421875px" height="218px" xmlns="http://www.w3.org/2000/svg" viewBox="145.81402587890625 -34 208.3719482421875 218" style="background: rgba(0, 0, 0, 0);" preserveAspectRatio="xMidYMid"><defs><filter id="editing-golden" x="-100%" y="-100%" width="300%" height="300%"><feFlood flood-color="#5e4a1c" result="flood"></feFlood><feFlood flood-color="#fff694" result="flood-light"></feFlood><feComposite operator="in" in="flood" in2="SourceAlpha" result="flood-comp"></feComposite><feGaussianBlur in="flood-comp" stdDeviation="3" result="blur"></feGaussianBlur><feOffset in="blur" dy="3" result="offset-blur"></feOffset><feComponentTransfer in="offset-blur" result="comp-blur"><feFuncA type="linear" slope="0.7" intercept="-0.1"></feFuncA></feComponentTransfer><feSpecularLighting surfaceScale="200" specularConstant="20" specularExponent="1" lighting-color="#fff" in="blur" result="specular"><fePointLight x="-250" y="-250" z="3500"></fePointLight></feSpecularLighting><feComponentTransfer in="specular" result="inspecular"><feFuncA type="linear" slope="-1" intercept="1"></feFuncA></feComponentTransfer><feComposite operator="in" in="flood-light" in2="inspecular" result="inspecular2"></feComposite><feComposite operator="in" in="inspecular2" in2="SourceAlpha" result="light"></feComposite><feMerge><feMergeNode in="comp-blur"></feMergeNode><feMergeNode in="SourceGraphic"></feMergeNode><feMergeNode in="light"></feMergeNode></feMerge></filter></defs><g filter="url(#editing-golden)"><g transform="translate(178.89501810073853, 117.92000126838684)"><path d="M68.67-12.64L68.67-12.64L68.67-12.64Q71.11-11.95 71.34-8.82L71.34-8.82L71.34-8.82Q59.97 2.32 44.89 2.32L44.89 2.32L44.89 2.32Q37.00 2.32 29.87-0.29L29.87-0.29L29.87-0.29Q22.74-2.90 17.23-8.00L17.23-8.00L17.23-8.00Q11.72-13.11 8.41-21.52L8.41-21.52L8.41-21.52Q5.10-29.93 5.10-40.60L5.10-40.60L5.10-40.60Q5.10-51.16 8.76-59.57L8.76-59.57L8.76-59.57Q12.41-67.98 18.50-73.20L18.50-73.20L18.50-73.20Q24.59-78.42 31.61-80.97L31.61-80.97L31.61-80.97Q38.63-83.52 46.05-83.52L46.05-83.52L46.05-83.52Q62.29-83.52 71.80-78.30L71.80-78.30L71.80-78.30Q72.27-70.06 68.21-59.28L68.21-59.28L68.21-59.28Q65.31-58.81 63.10-59.86L63.10-59.86L61.83-74.82L61.83-74.82Q55.56-77.49 46.86-77.37L46.86-77.37L46.86-77.37Q34.80-77.37 26.68-66.76L26.68-66.76L26.68-66.76Q18.56-56.14 18.56-40.60L18.56-40.60L18.56-40.60Q18.56-23.78 25.69-13.80L25.69-13.80L25.69-13.80Q32.83-3.83 46.17-3.83L46.17-3.83L46.17-3.83Q58.23-3.83 68.67-12.64ZM100.80-75.40L100.80-6.38L128.64-6.38L131.78-20.65L131.78-20.65Q134.21-21.11 135.95-20.30L135.95-20.30L135.95-20.30Q137.11-11.83 137.11 0L137.11 0L95.00 0L95.00 0Q90.36 0 79.58 0.58L79.58 0.58L79.58 0.58Q79.23-1.62 79.81-3.48L79.81-3.48L79.81-3.48Q86.54-4.76 88.62-5.80L88.62-5.80L88.62-75.40L79.69-77.72L79.69-77.72Q79.34-79.92 80.27-81.78L80.27-81.78L80.27-81.78Q90.71-81.20 94.42-81.20L94.42-81.20L94.42-81.20Q99.64-81.20 110.32-81.78L110.32-81.78L110.32-81.78Q110.66-79.58 110.08-77.72L110.08-77.72L110.08-77.72Q103.94-77.14 100.80-75.40L100.80-75.40Z" fill="#f7c61d"></path></g></g><style>text {
  font-size: 64px;
  font-family: Arial Black;
  dominant-baseline: central;
  text-anchor: middle;
}</style></svg>